<!DOCTYPE svg PUBLIC "-//W3C//DTD SVG 1.1//EN" "http://www.w3.org/Graphics/SVG/1.1/DTD/svg11.dtd">
<svg version="1.1" id="Layer_1" xmlns="http://www.w3.org/2000/svg" xmlns:xlink="http://www.w3.org/1999/xlink" x="0px" y="0px"
	 viewBox="0 0 300 72" style="enable-background:new 0 0 300 72;" xml:space="preserve">
<style type="text/css">
	.st0{fill:#466F82;}
	.st1{fill:#6A615F;}
</style>
<g>
	<g>
		<g>
			<g>
				<path class="st0" d="M14.9,43.7H0.2V0.3h11.4c3.6,0,6.4,0.5,8.4,1.4c2,1,3.5,2.3,4.6,4c1.1,1.7,1.6,3.6,1.6,5.9
					c0,4.3-2.2,7.3-6.6,9.2c3.2,0.6,5.7,1.9,7.6,3.9c1.9,2,2.8,4.4,2.8,7.2c0,2.2-0.6,4.2-1.7,5.9c-1.1,1.7-2.8,3.2-5,4.3
					C21,43.2,18.2,43.7,14.9,43.7z M11.7,5.8H6.4v13h4.1c3.3,0,5.7-0.6,7.1-1.9c1.4-1.3,2.1-2.9,2.1-4.9C19.7,7.9,17.1,5.8,11.7,5.8
					z M12.2,24.4H6.4v13.8h6.1c3.4,0,5.7-0.3,6.9-0.8c1.2-0.5,2.2-1.3,2.9-2.5c0.7-1.1,1.1-2.3,1.1-3.6c0-1.3-0.4-2.5-1.2-3.6
					c-0.8-1.1-1.9-1.9-3.3-2.5C17.6,24.7,15.3,24.4,12.2,24.4z"/>
				<path class="st0" d="M57.4,29.9H37.3c0.1,2.7,1.1,4.9,2.8,6.5c1.7,1.6,3.9,2.4,6.5,2.4c3.7,0,7.2-1.2,10.3-3.5v5.5
					c-1.7,1.2-3.5,2-5.2,2.5c-1.7,0.5-3.7,0.7-6,0.7c-3.2,0-5.7-0.7-7.7-2c-2-1.3-3.5-3.1-4.7-5.3c-1.2-2.2-1.8-4.8-1.8-7.7
					c0-4.4,1.2-7.9,3.7-10.6c2.5-2.7,5.7-4.1,9.6-4.1c3.8,0,6.8,1.3,9.1,4c2.3,2.7,3.4,6.2,3.4,10.7V29.9z M37.4,26.5h14.4
					c-0.1-2.3-0.8-4-2-5.2c-1.2-1.2-2.8-1.8-4.9-1.8c-2,0-3.7,0.6-5,1.8C38.6,22.5,37.8,24.2,37.4,26.5z"/>
				<path class="st0" d="M67.4,15.1v6.6l0.3-0.5c2.7-4.4,5.5-6.6,8.2-6.6c2.1,0,4.4,1.1,6.7,3.2l-3,5c-2-1.9-3.8-2.8-5.5-2.8
					c-1.8,0-3.4,0.9-4.8,2.6c-1.3,1.7-2,3.8-2,6.2v15h-5.7V15.1H67.4z"/>
				<path class="st0" d="M84.4,0.3H90v43.5h-5.7V0.3z M103,15.1h6.7l-12.2,14l14.7,14.6h-7.6L90.3,29.1L103,15.1z"/>
				<path class="st0" d="M135.2,29.9H115c0.1,2.7,1.1,4.9,2.8,6.5c1.7,1.6,3.9,2.4,6.6,2.4c3.7,0,7.2-1.2,10.3-3.5v5.5
					c-1.7,1.2-3.5,2-5.2,2.5c-1.7,0.5-3.7,0.7-6,0.7c-3.2,0-5.7-0.7-7.7-2c-2-1.3-3.5-3.1-4.7-5.3c-1.2-2.2-1.8-4.8-1.8-7.7
					c0-4.4,1.2-7.9,3.7-10.6c2.5-2.7,5.7-4.1,9.6-4.1c3.8,0,6.8,1.3,9.1,4c2.3,2.7,3.4,6.2,3.4,10.7V29.9z M115.1,26.5h14.4
					c-0.1-2.3-0.8-4-2-5.2c-1.2-1.2-2.8-1.8-4.9-1.8c-2,0-3.7,0.6-5,1.8C116.4,22.5,115.5,24.2,115.1,26.5z"/>
				<path class="st0" d="M139.2,0.3h5.7v43.5h-5.7V0.3z"/>
				<path class="st0" d="M175.2,29.9h-20.1c0.1,2.7,1.1,4.9,2.8,6.5c1.7,1.6,3.9,2.4,6.6,2.4c3.7,0,7.2-1.2,10.3-3.5v5.5
					c-1.7,1.2-3.5,2-5.2,2.5c-1.7,0.5-3.7,0.7-6,0.7c-3.2,0-5.7-0.7-7.7-2c-1.9-1.3-3.5-3.1-4.7-5.3c-1.2-2.2-1.8-4.8-1.8-7.7
					c0-4.4,1.2-7.9,3.7-10.6c2.5-2.7,5.7-4.1,9.6-4.1c3.8,0,6.8,1.3,9.1,4c2.3,2.7,3.4,6.2,3.4,10.7V29.9z M155.2,26.5h14.4
					c-0.1-2.3-0.8-4-2-5.2c-1.2-1.2-2.8-1.8-4.9-1.8c-2,0-3.7,0.6-5,1.8C156.4,22.5,155.6,24.2,155.2,26.5z"/>
				<path class="st0" d="M204.6,0.3h6.2v37.8h19.6v5.7h-25.8V0.3z"/>
				<path class="st0" d="M253.4,26.5v12.2c0,1,0.3,1.5,1,1.5c0.7,0,1.8-0.5,3.2-1.5v3.4c-1.3,0.8-2.3,1.4-3.1,1.7
					c-0.8,0.3-1.6,0.4-2.5,0.4c-2.4,0-3.9-1-4.3-2.9c-2.4,1.9-5,2.8-7.7,2.8c-2,0-3.7-0.7-5-2c-1.3-1.3-2-3-2-5
					c0-1.8,0.7-3.4,1.9-4.8c1.3-1.4,3.1-2.5,5.5-3.4l7.3-2.5V25c0-3.4-1.7-5.2-5.2-5.2c-3.1,0-6.1,1.6-9,4.8v-6.2
					c2.2-2.6,5.4-3.9,9.5-3.9c3.1,0,5.6,0.8,7.4,2.4c0.6,0.5,1.2,1.2,1.7,2.1c0.5,0.9,0.8,1.7,1,2.6
					C253.3,22.5,253.4,24.1,253.4,26.5z M247.9,38.1v-8.5l-3.8,1.5c-1.9,0.8-3.3,1.5-4.1,2.3c-0.8,0.8-1.2,1.8-1.2,2.9
					c0,1.2,0.4,2.2,1.1,2.9c0.8,0.8,1.7,1.1,2.9,1.1C244.6,40.3,246.3,39.6,247.9,38.1z"/>
				<path class="st0" d="M293.9,15.1h6.1l-12.6,29.1h-1.8l-8.4-19.9l-8.3,19.9h-1.9l-12.8-29.1h6.1l7.5,17.4l7.3-17.4h4.2l7.2,17.4
					L293.9,15.1z"/>
			</g>
		</g>
		<polygon class="st0" points="177.9,53.1 184.3,53.1 202.1,15.1 195.7,15.1 188.3,31.3 180.6,15.1 174.1,15.1 185.2,37.7 		"/>
	</g>
	<g>
		<g>
			<path class="st1" d="M7.5,61.2H9v5.9c0,0.8-0.1,1.4-0.2,1.8c-0.1,0.4-0.3,0.7-0.4,1c-0.2,0.3-0.4,0.5-0.6,0.7
				c-0.8,0.7-1.9,1.1-3.2,1.1c-1.4,0-2.5-0.4-3.3-1.1c-0.2-0.2-0.5-0.5-0.6-0.7c-0.2-0.3-0.3-0.6-0.4-1c-0.1-0.4-0.2-1-0.2-1.9v-5.9
				h1.5v5.9c0,1,0.1,1.7,0.3,2c0.2,0.4,0.6,0.7,1,0.9c0.5,0.2,1,0.3,1.6,0.3c0.9,0,1.6-0.2,2.2-0.7c0.3-0.2,0.5-0.5,0.6-0.9
				c0.1-0.3,0.2-0.9,0.2-1.7V61.2z"/>
			<path class="st1" d="M23.7,61.2h1.4v10.4h-1.3l-7-8v8h-1.4V61.2h1.2l7,8.1V61.2z"/>
			<path class="st1" d="M31.8,61.2h1.5v10.4h-1.5V61.2z"/>
			<path class="st1" d="M46.5,61.2H48l-4.4,10.5h-0.4l-4.5-10.5h1.5l3.1,7.3L46.5,61.2z"/>
			<path class="st1" d="M53.5,61.2h5.9v1.3H55v3.2h4.3V67H55v3.2h4.6v1.3h-6.1V61.2z"/>
			<path class="st1" d="M65.6,71.6V61.2h2.6c1.1,0,1.9,0.3,2.5,0.8c0.6,0.5,0.9,1.2,0.9,2.1c0,0.6-0.2,1.1-0.5,1.6
				c-0.3,0.4-0.7,0.8-1.3,1c0.3,0.2,0.7,0.5,1,0.9c0.3,0.4,0.8,1,1.3,2c0.4,0.6,0.7,1,0.9,1.3l0.6,0.7h-1.8l-0.5-0.7
				c0,0,0-0.1-0.1-0.1L71,70.4l-0.5-0.8l-0.5-0.8c-0.3-0.4-0.6-0.8-0.8-1c-0.3-0.3-0.5-0.4-0.7-0.5c-0.2-0.1-0.6-0.2-1-0.2h-0.4v4.5
				H65.6z M67.5,62.5h-0.4v3.3h0.6c0.8,0,1.3-0.1,1.6-0.2c0.3-0.1,0.5-0.3,0.7-0.6c0.2-0.3,0.2-0.6,0.2-0.9c0-0.3-0.1-0.6-0.3-0.9
				c-0.2-0.3-0.4-0.5-0.7-0.6C68.8,62.5,68.3,62.5,67.5,62.5z"/>
			<path class="st1" d="M81.7,67.3l-1.1-0.7c-0.7-0.4-1.2-0.9-1.5-1.3c-0.3-0.4-0.5-0.9-0.5-1.5c0-0.8,0.3-1.5,0.9-2
				c0.6-0.5,1.3-0.8,2.2-0.8c0.9,0,1.7,0.2,2.4,0.7v1.7c-0.8-0.7-1.6-1.1-2.4-1.1c-0.5,0-0.9,0.1-1.2,0.3C80.2,63,80,63.3,80,63.6
				c0,0.3,0.1,0.6,0.4,0.9c0.2,0.3,0.6,0.6,1.1,0.9l1.1,0.7c1.3,0.8,1.9,1.7,1.9,2.9c0,0.8-0.3,1.5-0.8,2c-0.6,0.5-1.3,0.8-2.2,0.8
				c-1,0-2-0.3-2.8-0.9v-1.9c0.8,1,1.7,1.5,2.8,1.5c0.5,0,0.9-0.1,1.2-0.4c0.3-0.3,0.5-0.6,0.5-1C83.1,68.4,82.7,67.8,81.7,67.3z"/>
			<path class="st1" d="M90.6,61.2H92v10.4h-1.5V61.2z"/>
			<path class="st1" d="M97.8,61.2h8.7v1.3h-3.6v9.1h-1.5v-9.1h-3.6V61.2z"/>
			<path class="st1" d="M118.6,61.2h1.8l-3.9,4.9v5.5H115v-5.5l-3.9-4.9h1.8l2.8,3.6L118.6,61.2z"/>
			<path class="st1" d="M139.7,61c1.6,0,3,0.5,4,1.5c1.1,1,1.6,2.3,1.6,3.8c0,1.5-0.5,2.8-1.6,3.8c-1.1,1-2.4,1.5-4.1,1.5
				c-1.6,0-2.9-0.5-3.9-1.5c-1-1-1.6-2.3-1.6-3.8c0-1.6,0.5-2.8,1.6-3.9C136.7,61.6,138.1,61,139.7,61z M139.7,62.5
				c-1.2,0-2.2,0.4-2.9,1.1c-0.8,0.7-1.2,1.7-1.2,2.9c0,1.1,0.4,2.1,1.2,2.8c0.8,0.7,1.7,1.1,2.9,1.1c1.2,0,2.1-0.4,2.9-1.1
				c0.8-0.8,1.2-1.7,1.2-2.8c0-1.1-0.4-2-1.2-2.8C141.8,62.8,140.9,62.5,139.7,62.5z"/>
			<path class="st1" d="M151.5,61.2h5.6v1.3H153v2.9h4.1v1.3H153v4.9h-1.5V61.2z"/>
			<path class="st1" d="M180.7,69.2v1.6c-1.1,0.6-2.4,0.9-3.8,0.9c-1.2,0-2.2-0.2-3-0.7c-0.8-0.5-1.5-1.1-1.9-1.9
				c-0.5-0.8-0.7-1.7-0.7-2.7c0-1.5,0.5-2.8,1.6-3.8c1.1-1,2.4-1.6,4-1.6c1.1,0,2.3,0.3,3.7,0.9v1.6c-1.2-0.7-2.4-1-3.6-1
				c-1.2,0-2.2,0.4-3,1.1c-0.8,0.8-1.2,1.7-1.2,2.8c0,1.1,0.4,2.1,1.2,2.8c0.8,0.7,1.8,1.1,3,1.1C178.3,70.4,179.5,70,180.7,69.2z"
				/>
			<path class="st1" d="M190.6,61.1h1l4.7,10.5h-1.5l-1.4-3.1H189l-1.3,3.1h-1.5L190.6,61.1z M192.8,67.2l-1.7-3.8l-1.6,3.8H192.8z"
				/>
			<path class="st1" d="M201.8,61.2h1.5v9.1h4.7v1.4h-6.2V61.2z"/>
			<path class="st1" d="M214.3,61.2h1.5v10.4h-1.5V61.2z"/>
			<path class="st1" d="M223.9,61.2h5.6v1.3h-4.1v2.9h4.1v1.3h-4.1v4.9h-1.5V61.2z"/>
			<path class="st1" d="M240.6,61c1.6,0,3,0.5,4,1.5c1.1,1,1.6,2.3,1.6,3.8c0,1.5-0.5,2.8-1.6,3.8c-1.1,1-2.4,1.5-4.1,1.5
				c-1.6,0-2.9-0.5-3.9-1.5c-1-1-1.6-2.3-1.6-3.8c0-1.6,0.5-2.8,1.6-3.9C237.6,61.6,239,61,240.6,61z M240.6,62.5
				c-1.2,0-2.2,0.4-2.9,1.1c-0.8,0.7-1.2,1.7-1.2,2.9c0,1.1,0.4,2.1,1.2,2.8c0.8,0.7,1.7,1.1,2.9,1.1c1.2,0,2.1-0.4,2.9-1.1
				c0.8-0.8,1.2-1.7,1.2-2.8c0-1.1-0.4-2-1.2-2.8C242.7,62.8,241.8,62.5,240.6,62.5z"/>
			<path class="st1" d="M252.5,71.6V61.2h2.6c1.1,0,1.9,0.3,2.5,0.8c0.6,0.5,0.9,1.2,0.9,2.1c0,0.6-0.2,1.1-0.5,1.6
				c-0.3,0.4-0.7,0.8-1.3,1c0.3,0.2,0.7,0.5,1,0.9c0.3,0.4,0.8,1,1.3,2c0.4,0.6,0.7,1,0.9,1.3l0.6,0.7h-1.8l-0.5-0.7
				c0,0,0-0.1-0.1-0.1l-0.3-0.4l-0.5-0.8l-0.5-0.8c-0.3-0.4-0.6-0.8-0.8-1c-0.3-0.3-0.5-0.4-0.7-0.5c-0.2-0.1-0.6-0.2-1-0.2h-0.4
				v4.5H252.5z M254.4,62.5h-0.4v3.3h0.6c0.8,0,1.3-0.1,1.6-0.2c0.3-0.1,0.5-0.3,0.7-0.6c0.2-0.3,0.2-0.6,0.2-0.9
				c0-0.3-0.1-0.6-0.3-0.9c-0.2-0.3-0.4-0.5-0.7-0.6C255.7,62.5,255.1,62.5,254.4,62.5z"/>
			<path class="st1" d="M274.3,61.2h1.4v10.4h-1.3l-7-8v8h-1.4V61.2h1.2l7,8.1V61.2z"/>
			<path class="st1" d="M282.7,61.2h1.5v10.4h-1.5V61.2z"/>
			<path class="st1" d="M294.2,61.1h1l4.7,10.5h-1.5l-1.4-3.1h-4.5l-1.3,3.1h-1.5L294.2,61.1z M296.4,67.2l-1.7-3.8l-1.6,3.8H296.4z
				"/>
		</g>
	</g>
</g>
</svg>